<?xml version="1.0" encoding="utf-8"?>
<!-- Generator: Adobe Illustrator 25.2.1, SVG Export Plug-In . SVG Version: 6.00 Build 0)  -->
<svg version="1.1" id="Capa_1" xmlns="http://www.w3.org/2000/svg" xmlns:xlink="http://www.w3.org/1999/xlink" x="0px" y="0px"
	 viewBox="0 0 560 288" style="enable-background:new 0 0 560 288;" xml:space="preserve">
<style type="text/css">
	.st0{fill:#B900B1;}
</style>
<g>
	<g>
		<path class="st0" d="M122.62,76.19c-11.65,16.18-21.82,33.39-30.36,51.41c-0.63,1.32,0.67,2.81,2.05,2.05
			c23.34-12.82,45.32-28,65.61-45.25c-0.84-0.49-1.67-0.97-2.51-1.46c-7.1,27.96-21.04,53.45-36.18,77.78
			c-4.3,6.92-8.72,13.76-13.13,20.61c-0.7,1.08,0.46,2.61,1.69,2.2c23.03-7.53,42.68-23.18,60.82-38.79
			c18.31-15.76,35.23-33.14,50.48-51.88c8.54-10.49,16.56-21.4,24.03-32.67c-0.91-0.39-1.83-0.77-2.74-1.16
			c-7.34,23.57-15.33,46.94-23.97,70.07c-8.68,23.23-18,46.22-27.96,68.93c-2.81,6.4-5.66,12.77-8.57,19.12
			c-1.37,2.99-2.84,5.95-4.11,8.99c-1.15,2.73-1.88,5.61-0.9,8.5c0.28,0.82,1.38,1.51,2.2,0.9c23.72-17.76,47.43-35.53,71.15-53.29
			c22.9-17.15,46.07-34.02,68.55-51.72c12.34-9.72,24.37-19.84,35.67-30.76c-0.79-0.61-1.57-1.21-2.36-1.82
			c-10.79,16.62-21.57,33.23-32.36,49.85c-10.55,16.25-21.34,32.37-31.63,48.79c-5.08,8.1-9.69,16.74-11.08,26.32
			c-0.13,0.87,0.21,1.52,1.05,1.85c4.69,1.84,8.94-2.03,12.31-4.77c4.58-3.73,9.16-7.46,13.75-11.19
			c9.26-7.54,18.52-15.08,27.79-22.62c18.33-14.92,36.66-29.84,54.99-44.76c10.33-8.41,20.67-16.82,31-25.24
			c-0.84-0.49-1.67-0.97-2.51-1.46c-7.97,27.67-22.01,53.01-37.15,77.33c-4.33,6.96-8.76,13.86-13.19,20.75
			c-0.67,1.05,0.46,2.67,1.69,2.2c25.05-9.39,45.58-26.99,68.83-39.74c6.66-3.66,13.55-6.88,20.75-9.34
			c-0.62-0.62-1.23-1.23-1.85-1.85c-1.9,13.32-6.97,25.93-14.84,36.84c-0.73,1.02,0.29,2.15,1.3,2.26
			c12.12,1.25,22.69-6.25,31.85-13.2c-0.75-0.43-1.5-0.86-2.26-1.3c-1.16,15.16-5.86,29.88-13.65,42.93
			c-0.99,1.66,1.6,3.17,2.59,1.51c8.06-13.52,12.86-28.75,14.06-44.45c0.08-1.06-1.37-1.97-2.26-1.3
			c-8.74,6.64-18.74,13.99-30.34,12.79c0.43,0.75,0.86,1.5,1.3,2.26c7.99-11.09,13.21-24.03,15.14-37.56
			c0.15-1.03-0.64-2.26-1.85-1.85c-25.33,8.67-46.01,26.15-69.01,39.25c-6.61,3.77-13.44,7.16-20.58,9.83
			c0.56,0.73,1.13,1.47,1.69,2.2c15.67-24.36,31.39-48.91,42.53-75.75c3.13-7.53,5.86-15.22,8.11-23.05
			c0.45-1.55-1.42-2.35-2.51-1.46C380.17,143.03,344.59,172,309,200.96c-4.97,4.05-9.94,8.09-14.92,12.14
			c-2.53,2.06-5.05,4.15-7.6,6.19c-2.14,1.71-4.8,3.69-7.64,2.57c0.35,0.62,0.7,1.23,1.05,1.85c1.25-8.57,5.1-16.31,9.57-23.64
			c4.87-7.99,10.13-15.77,15.23-23.62c10.65-16.41,21.3-32.81,31.95-49.22c6.01-9.26,12.02-18.51,18.02-27.77
			c0.95-1.46-1.15-2.98-2.36-1.82c-19.98,19.31-42.22,36.02-64.42,52.65c-23.51,17.61-47.03,35.22-70.54,52.84
			c-13.26,9.93-26.53,19.87-39.79,29.8c0.73,0.3,1.47,0.6,2.2,0.9c-0.97-2.88,0.33-5.68,1.54-8.28c1.26-2.73,2.53-5.46,3.78-8.2
			c2.55-5.59,5.06-11.19,7.53-16.81c4.85-11.03,9.55-22.13,14.11-33.29c9.19-22.52,17.77-45.3,25.71-68.29
			c4.48-12.98,8.76-26.02,12.85-39.13c0.52-1.68-1.83-2.53-2.74-1.16c-13.1,19.76-27.9,38.37-44.23,55.56
			c-16.32,17.18-34.13,33.24-53.36,47.11c-11.07,7.98-22.92,15.03-35.94,19.29c0.56,0.73,1.13,1.47,1.69,2.2
			c15.65-24.26,31.39-48.76,42.03-75.72c3.01-7.63,5.57-15.43,7.59-23.38c0.39-1.52-1.4-2.4-2.51-1.46
			c-20.09,17.08-41.89,32.08-65,44.78c0.68,0.68,1.37,1.37,2.05,2.05c8.54-18.02,18.71-35.23,30.36-51.41
			C126.34,76.13,123.74,74.63,122.62,76.19L122.62,76.19z"/>
	</g>
</g>
</svg>
