<?xml version="1.0" encoding="utf-8"?>
<!-- Generator: Adobe Illustrator 25.2.1, SVG Export Plug-In . SVG Version: 6.00 Build 0)  -->
<svg version="1.1" id="Capa_1" xmlns="http://www.w3.org/2000/svg" xmlns:xlink="http://www.w3.org/1999/xlink" x="0px" y="0px"
	 viewBox="0 0 560 288" style="enable-background:new 0 0 560 288;" xml:space="preserve">
<style type="text/css">
	.st0{fill:#730013;}
</style>
<g>
	<g>
		<path d="M82.33,120.74c-0.58,8.67-1.16,17.34-1.73,26.01c-0.13,1.93,2.87,1.92,3,0c0.58-8.67,1.16-17.34,1.73-26.01
			C85.46,118.81,82.46,118.82,82.33,120.74L82.33,120.74z"/>
	</g>
</g>
<g>
	<g>
		<path d="M58.99,110.75c15.9-4.08,32.28-6.15,48.7-6.12c7.59,0.02,15.6,0.01,22.91,2.3c6.89,2.15,12.22,6.99,16.47,12.68
			c4.35,5.83,7.92,12.32,10.18,19.24c1.13,3.46,1.96,7.04,2.35,10.65c0.39,3.64,0.51,7.6-1.1,10.98c-1.48,3.11-4.17,5.42-6.92,7.38
			c-2.95,2.11-6.03,4.04-9.17,5.85c-6.36,3.68-13.03,6.8-19.94,9.31c-13.79,5.02-28.42,7.7-43.1,7.76c-1.8,0.01-3.59-0.03-5.39-0.09
			c-1.93-0.07-1.93,2.93,0,3c15.36,0.58,30.82-1.63,45.42-6.43c7.29-2.4,14.38-5.43,21.14-9.06c3.35-1.8,6.63-3.76,9.8-5.86
			c3.02-2,6.12-4.1,8.46-6.89c5.1-6.1,4.46-14.3,2.91-21.62c-1.58-7.46-4.73-14.59-8.8-21.02c-3.91-6.18-8.69-12.21-15.08-15.97
			c-6.76-3.98-14.76-4.72-22.43-5.04c-17.06-0.71-34.21,0.83-50.88,4.54c-2.12,0.47-4.22,0.98-6.32,1.52
			C56.32,108.34,57.11,111.23,58.99,110.75L58.99,110.75z"/>
	</g>
</g>
<g>
	<g>
		<path d="M168.04,144.64c-2.03,10.77-4.05,21.54-6.08,32.31c-0.36,1.89,2.54,2.7,2.89,0.8c2.03-10.77,4.05-21.54,6.08-32.31
			C171.28,143.55,168.39,142.74,168.04,144.64L168.04,144.64z"/>
	</g>
</g>
<g>
	<g>
		<path d="M207.54,134.78c-8.03-0.5-17.01,1.79-23.06,7.31c-2.7,2.46-4.59,5.76-4.75,9.46c-0.16,3.52,1.36,6.92,4.36,8.85
			c3.02,1.95,6.83,2.09,10.31,2.32c4.36,0.29,8.62,1.13,12.74,2.6c1.9,0.68,3.93,1.43,5.6,2.6c1.63,1.15,2.43,2.88,2.85,4.78
			c0.38,1.74,0.59,3.67,0.53,5.45c-0.07,2.06-1.64,2.69-3.42,3.12c-10.13,2.48-20.92,2.74-31.23,1.46c-1.91-0.24-1.89,2.76,0,3
			c9.23,1.15,18.58,0.91,27.74-0.7c3.32-0.58,8.33-1.02,9.6-4.82c0.61-1.82,0.28-3.97,0.06-5.83c-0.21-1.84-0.56-3.64-1.36-5.32
			c-1.79-3.76-5.9-5.32-9.58-6.64c-4.12-1.48-8.43-2.34-12.79-2.66c-3.32-0.24-7.36-0.12-10.08-2.36c-2.63-2.17-2.87-6.12-1.55-9.08
			c1.77-3.96,5.81-6.5,9.65-8.15c4.53-1.95,9.49-2.72,14.4-2.41C209.47,137.9,209.46,134.9,207.54,134.78L207.54,134.78z"/>
	</g>
</g>
<g>
	<g>
		<path d="M239.58,153.01c0.49,3.04,4.67,3.59,7.07,4.19c3.24,0.8,6.61,1.35,9.94,0.86c5.44-0.8,10.63-4.85,10.56-10.74
			c-0.08-6.43-5.34-10.88-10.69-13.44c-5.49-2.63-11.59-4.59-17.73-4.55c-6.07,0.04-11.78,2.37-15.83,6.94
			c-3.98,4.49-6.31,10.35-7.14,16.25c-0.88,6.31,0.04,12.81,3.2,18.39c2.8,4.94,7.06,8.9,11.75,12.03
			c6.16,4.11,13.17,6.69,20.04,9.34c1.89,0.73,3.77,1.46,5.64,2.24c1.7,0.71,3.45,1.72,5.32,1.82c3.02,0.15,5.53-3.13,3.4-5.72
			c-1.23-1.49-3.34,0.64-2.12,2.12c-0.08-0.09-0.2,0.34-0.42,0.48c-0.44,0.29-1.08,0.09-1.54-0.03c-1.46-0.38-2.87-1.17-4.27-1.74
			c-2.66-1.09-5.36-2.11-8.04-3.15c-5.21-2.02-10.42-4.14-15.18-7.1c-4.03-2.51-7.81-5.63-10.55-9.54
			c-3.03-4.31-4.57-9.35-4.56-14.61c0.01-9.54,4.77-20.98,14.66-23.91c5.04-1.5,10.45-0.73,15.39,0.81
			c4.73,1.47,10.23,3.58,13.43,7.55c1.7,2.11,2.75,5.06,2.01,7.76c-0.67,2.42-2.72,4.16-4.97,5.1c-2.68,1.12-5.68,1.09-8.5,0.61
			c-1.62-0.28-3.22-0.68-4.81-1.11c-0.92-0.25-2.97-0.46-3.16-1.62C242.16,150.31,239.27,151.12,239.58,153.01L239.58,153.01z"/>
	</g>
</g>
<g>
	<g>
		<path d="M271.59,141.54c0.31,11.38,0.62,22.77,0.92,34.15c0.05,1.93,3.02,1.94,3,0c-0.08-8.17,1.08-16.29,3.47-24.1
			c1.15-3.76,2.47-7.65,4.39-11.1c0.94-1.69,2.2-2.65,4.04-3.22c1.85-0.57,3.76-0.95,5.64-1.41c0.98-0.24,1.96-0.52,2.95-0.71
			c0.79-0.15,0.85,0.13,0.95,0.92c0.24,1.89,0.07,3.92-0.03,5.82c-0.21,4.13-0.79,8.22-1.62,12.26c-1.67,8.14-4.27,16.04-6.88,23.91
			c-0.37,1.11-0.74,2.23-1.11,3.34c-0.33,1.01-0.8,2.05-0.91,3.11c-0.23,2.18,1.5,3.09,3.3,3.66c4.22,1.33,8.84,1.24,13.03-0.15
			c1.82-0.61,1.04-3.51-0.8-2.89c-3.93,1.31-8.15,1.35-12.07-0.06c-0.45-0.16-0.45-0.1-0.44-0.52c0.01-0.38,0.28-0.88,0.4-1.24
			c0.37-1.11,0.74-2.23,1.11-3.34c0.67-2.01,1.34-4.02,1.99-6.04c2.65-8.16,5.1-16.44,6.29-24.95c0.58-4.15,1-8.42,0.75-12.61
			c-0.09-1.44-0.43-3.03-1.75-3.85c-1.63-1.01-3.83-0.08-5.5,0.32c-3.53,0.85-8.1,1.28-10.62,4.22c-1.19,1.39-1.93,3.07-2.66,4.74
			c-0.85,1.95-1.64,3.92-2.34,5.92c-3.14,8.96-4.67,18.47-4.58,27.96c1,0,2,0,3,0c-0.31-11.38-0.62-22.77-0.92-34.15
			C274.54,139.62,271.54,139.61,271.59,141.54L271.59,141.54z"/>
	</g>
</g>
<g>
	<g>
		<path d="M265.32,116.21c14.84,0.95,29.84-1.5,43.6-7.15c1.76-0.72,0.99-3.63-0.8-2.89c-13.54,5.57-28.19,7.98-42.81,7.04
			C263.4,113.08,263.4,116.09,265.32,116.21L265.32,116.21z"/>
	</g>
</g>
<g>
	<g>
		<path d="M331.69,122.78c-8.12,6.32-14.11,14.99-18.22,24.36c-2.18,4.98-4.17,10.28-5.08,15.66c-0.86,5.09-0.38,10.45,3.03,14.55
			c3.2,3.85,8.36,4.86,12.94,3.04c4.77-1.89,7.85-6.01,9.77-10.62c2.25-5.42,3.3-11.37,4.04-17.17c0.73-5.71,1.26-11.63,0.77-17.39
			c-0.51-6.04-2.51-11.55-6.55-16.12c-3.84-4.36-8.86-7.52-13.78-10.5c-1.66-1-3.17,1.59-1.51,2.59c3.96,2.39,7.92,4.87,11.28,8.07
			c3.5,3.33,5.94,7.33,6.98,12.07c1.1,4.99,0.8,10.23,0.41,15.28c-0.43,5.64-1.24,11.25-2.68,16.72c-1.17,4.43-2.81,9.11-6.37,12.2
			c-3.17,2.75-8.13,3.97-11.68,1.2c-3.79-2.96-4.5-8.2-3.84-12.67c0.71-4.82,2.45-9.61,4.3-14.1c3.99-9.67,10-18.59,18.3-25.06
			C335.33,123.72,333.2,121.61,331.69,122.78L331.69,122.78z"/>
	</g>
</g>
<path d="M461.57,111.13c-0.15-5.7-2.12-11.34-5.65-15.83c-1.82-2.33-4.31-4.14-5.94-6.61c-1.98-3.01-1.02-6.49-1.37-9.85
	c-0.56-5.32-3.86-9.87-8.1-12.97c-5.05-3.69-11.43-4.95-17.56-5.25c-6.86-0.33-13.81,0.27-20.59,1.31
	c-3.69,0.56-7.34,1.31-10.96,2.22c-2.85,0.72-7.36,3.05-9.78,0.49c-1.73-1.84-2.35-4.53-3.88-6.53c-1.5-1.95-3.61-3.04-6.04-3.36
	c-2.62-0.34-5.29,0.17-7.83,0.81c-3.73,0.93-7.45,1.96-11.17,2.95c-7.32,1.93-14.63,3.86-21.95,5.8c-3.77,1-7.54,2.05-11.33,2.98
	c-3.93,0.97-7.4,0.99-11.26-0.28c-6.74-2.21-13.33-4.73-20.16-6.68c-26.95-7.7-55.25-10.77-83.22-9.09
	c-28.8,1.73-56.38,9.12-83.37,19.04c-5.8,2.13-11.56,4.35-17.32,6.58c-1.47-1.18-2.95-2.34-4.46-3.48
	c-5.75-4.31-11.99-8.9-19.16-10.39c-5.56-1.15-11.65-0.14-16.02,3.65c-2.25,1.95-3.59,4.54-4.28,7.4c-0.76,3.17-0.82,7.07-3.61,9.25
	c-2.53,1.97-6.2,2.61-9.17,3.75c-2.96,1.13-5.88,2.4-8.7,3.87c-5.37,2.79-10.49,6.33-14.49,10.91c-1.99,2.28-3.72,4.81-5,7.56
	c-1.3,2.78-2.59,5.99-1.32,9.01c0.6,1.44,1.76,2.53,2.47,3.9c0.89,1.72,1.03,3.67,1.02,5.58c-0.01,3.4-0.38,6.72,0.33,10.09
	c3.17,15.01,18.09,21.79,31.34,26.41c-6.61,3.69-14.08,9.98-11.26,17.96c2.43,6.86,10.21,8.16,16.92,7.96
	c-1.5,2.56-1.67,5.92-0.56,8.73c2.17,5.52,7.88,9.08,12.66,12.14c5.32,3.4,11,6.24,16.89,8.52c5.61,2.17,11.69,4.17,17.69,4.85
	c4.01,0.46,9.34-0.24,11.2-4.15c12.93,4.09,26.43,6.29,39.99,6.46c7.01,0.09,14.02-0.37,20.96-1.34c3.6-0.5,7.19-1.15,10.74-1.94
	c3.48-0.78,7-2.11,10.56-2.4c3.59-0.29,6.67,1.48,9.77,3.02c2.9,1.45,5.91,2.68,8.99,3.67c5.99,1.91,12.26,2.91,18.53,3.25
	c13.37,0.73,26.75-1.45,39.84-3.99c6.6-1.28,13.17-2.88,19.82-3.92c3.9-0.61,7.66-0.53,11.48,0.52c3.19,0.88,6.28,2.05,9.51,2.8
	c12.31,2.84,25.4,1.51,36.95-3.55c2.92-1.28,5.67-2.85,8.36-4.55c3.08-1.95,6.05-3.6,9.8-3.57c3.66,0.03,7.27,0.99,10.92,1.32
	c3.39,0.3,6.81,0.3,10.2-0.04c12.95-1.29,23.93-7.55,33.17-16.47c4.6-4.44,8.74-9.32,12.8-14.25c4.11-4.99,8.33-9.98,11.6-15.58
	c3.34-5.7,5.24-11.81,5.58-18.42c0.37-7.1-0.69-14.34,0.8-21.35C458.32,123.58,461.76,117.94,461.57,111.13z M453.76,130.84
	c-1.11,6.82-0.25,13.71-0.61,20.57c-0.72,13.73-9.73,24.02-18.15,34.1c-7.88,9.44-16.57,19-28.07,24.02
	c-6.35,2.77-13.31,3.98-20.22,3.86c-6.58-0.12-13.87-2.98-20.29-0.67c-2.8,1.01-5.22,2.76-7.75,4.3c-2.8,1.71-5.76,3.17-8.83,4.33
	c-5.92,2.24-12.2,3.49-18.53,3.65c-6.56,0.17-12.93-0.89-19.17-2.89c-2.98-0.95-5.94-1.92-9.08-2.22
	c-3.38-0.33-6.79,0.17-10.11,0.78c-25.14,4.66-52.31,12.73-77.38,3.35c-5.91-2.21-11.31-6.58-17.93-5.7
	c-3.18,0.42-6.27,1.48-9.38,2.2c-3.42,0.78-6.86,1.43-10.33,1.95c-13.98,2.07-28.36,1.9-42.29-0.48c-6.65-1.13-13.19-2.78-19.6-4.88
	c-0.74-0.24-1.68,0.28-1.85,1.05c-1.14,5.3-9.49,3.37-13.05,2.55c-6.39-1.48-12.64-3.62-18.56-6.43
	c-5.74-2.72-11.38-5.99-16.36-9.95c-2.41-1.92-4.98-4.36-5.65-7.5c-0.58-2.71,0.28-5.69,2.86-6.99c1.28-0.65,0.73-2.95-0.76-2.8
	c-5.69,0.6-15.47,1.17-18-5.49c-2.92-7.67,7.38-13.53,12.95-16.15c1.25-0.59,0.76-2.37-0.36-2.74c-12.16-4.05-26.8-9.14-31.74-22.3
	c-1.13-3.02-1.4-6.06-1.27-9.27c0.12-3.01,0.35-6.13-0.73-9.01c-0.46-1.22-1.18-2.23-1.92-3.28c-1.38-1.98-1.43-3.65-0.63-5.91
	c0.97-2.75,2.5-5.35,4.28-7.65c3.53-4.54,8.23-8.02,13.22-10.8c5.18-2.89,10.68-4.66,16.18-6.79c2.55-0.99,4.85-2.38,6.2-4.85
	c1.39-2.55,1.58-5.5,2.29-8.27c1.5-5.89,7.08-9.01,12.93-9.02c7.53-0.01,14.27,4.8,20.11,9.03c1.59,1.16,3.15,2.35,4.7,3.57
	c-1.68,0.75-0.91,3.55,0.87,2.86c0.59-0.23,1.18-0.46,1.77-0.69c4,3.31,7.85,6.81,11.51,10.5c1.36,1.37,3.48-0.75,2.12-2.12
	c-3.34-3.37-6.83-6.56-10.45-9.61c24.89-9.61,50.09-18.56,76.58-22.56c27.44-4.14,55.65-3.52,82.89,1.72
	c13.4,2.58,26.47,6.36,39.29,11.02c3.18,1.16,6.42,2.11,9.84,1.82c3.52-0.3,6.94-1.4,10.33-2.3c7.18-1.9,14.35-3.79,21.53-5.69
	c3.66-0.97,7.32-1.93,10.97-2.9c3.14-0.83,6.3-1.87,9.53-2.35c2.98-0.44,6.11-0.21,7.96,2.47c1.34,1.93,2,4.26,3.53,6.07
	c4.01,4.76,10.95,1.11,15.86-0.01c7.15-1.62,14.44-2.55,21.76-2.77c6.56-0.2,13.58,0.05,19.52,3.18c5.06,2.67,9.23,7.55,9.41,13.47
	c0.09,3.03-0.35,6.03,1.05,8.85c1.24,2.49,3.4,4.32,5.29,6.3c4.19,4.4,6.54,10.34,6.54,16.42
	C458.58,118.54,454.82,124.31,453.76,130.84z"/>
<g>
	<g>
		<path class="st0" d="M371.5,108.43c6.97-5.1,15.14-8.47,23.71-9.6c-0.5-0.5-1-1-1.5-1.5c-1.04,9.9-3.33,23.74-15.09,26.12
			c-1.63,0.33-1.3,3.11,0.4,2.95c7.39-0.72,15.01-1.41,22.37-0.1c3.53,0.63,6.98,1.72,10.1,3.51c3.09,1.78,6.2,4.36,7.37,7.85
			c1.29,3.85-0.73,7.36-3.04,10.33c-2.3,2.95-4.92,5.66-7.77,8.09c-2.9,2.48-6.07,4.64-9.42,6.46c-1.61,0.88-3.27,1.69-4.96,2.4
			c-1.79,0.75-3.79,1.66-5.77,1.53c-2.25-0.15-4.31-1.68-6.17-2.82c-2.04-1.24-4.05-2.53-6.03-3.86c-4.05-2.72-7.98-5.62-11.78-8.68
			c-1.49-1.2-3.62,0.91-2.12,2.12c3.7,2.98,7.5,5.83,11.43,8.51c1.91,1.3,3.85,2.56,5.81,3.78c1.93,1.2,3.86,2.49,5.99,3.32
			c4.17,1.63,8.45-0.45,12.22-2.23c3.75-1.77,7.28-3.96,10.57-6.5c3.28-2.53,6.3-5.39,8.97-8.57c2.69-3.21,5.51-6.92,5.53-11.3
			c0.03-8.28-8.76-13.66-15.73-15.8c-8.88-2.73-18.45-1.94-27.55-1.06c0.13,0.98,0.27,1.96,0.4,2.95c5.48-1.11,9.88-5.14,12.57-9.9
			c3.27-5.81,4.04-12.6,4.73-19.11c0.08-0.74-0.75-1.6-1.5-1.5c-9.11,1.2-17.8,4.57-25.23,10.01
			C368.45,106.97,369.94,109.57,371.5,108.43L371.5,108.43z"/>
	</g>
</g>
<g>
	<g>
		<path class="st0" d="M73.32,119c-0.1,9.17-0.89,18.32-2.41,27.36c-0.32,1.89,2.57,2.7,2.89,0.8c1.56-9.31,2.42-18.72,2.52-28.16
			C76.34,117.07,73.34,117.07,73.32,119L73.32,119z"/>
	</g>
</g>
<g>
	<g>
		<path class="st0" d="M75.84,119.86c5.84-1.76,11.74-3.57,17.82-4.31c5.81-0.71,11.53-0.29,17.11,1.51
			c5.33,1.72,10.43,4.35,15.14,7.36c4.39,2.8,8.54,6.23,11.46,10.59c3.23,4.82,5.05,10.76,3.89,16.55c-0.38,1.89,2.51,2.69,2.89,0.8
			c2.33-11.67-4.92-22.08-13.96-28.64c-9.65-7-21.6-12.21-33.69-11.43c-7.35,0.47-14.45,2.56-21.46,4.68
			C73.2,117.52,73.98,120.42,75.84,119.86L75.84,119.86z"/>
	</g>
</g>
<g>
	<g>
		<path class="st0" d="M144.94,180.7c-2.92,2.99-6.69,4.83-10.59,6.22c-4.32,1.54-8.77,2.76-13.17,4.05
			c-9.46,2.77-19.03,5.32-28.81,6.65c-5.51,0.75-11.08,1.07-16.63,0.87c-1.93-0.07-1.93,2.93,0,3c10.2,0.36,20.37-1.1,30.29-3.38
			c4.97-1.14,9.9-2.49,14.8-3.92c4.59-1.33,9.22-2.63,13.74-4.19c4.59-1.58,9.05-3.67,12.49-7.19
			C148.41,181.44,146.29,179.31,144.94,180.7L144.94,180.7z"/>
	</g>
</g>
<g>
	<g>
		<path class="st0" d="M159.55,173.85c1.46-3.66,2.24-7.56,2.37-11.5c0.03-0.81-0.71-1.5-1.5-1.5c-0.83,0-1.47,0.69-1.5,1.5
			c-0.12,3.68-0.9,7.28-2.26,10.7c-0.3,0.75,0.33,1.65,1.05,1.85C158.56,175.13,159.25,174.6,159.55,173.85L159.55,173.85z"/>
	</g>
</g>
<g>
	<g>
		<path class="st0" d="M176.7,163.72c2.8,2.16,5.58,4.35,8.4,6.48c2.65,2,5.44,3.67,8.75,4.23c3.15,0.54,6.42,0.28,9.52,1.05
			c2.33,0.57,4.88,1.79,5.75,4.2c0.65,1.8,3.55,1.03,2.89-0.8c-2.26-6.29-9.4-6.65-15.04-7.09c-1.75-0.13-3.52-0.36-5.17-1.01
			c-1.62-0.64-3.1-1.63-4.5-2.66c-3.08-2.26-6.07-4.66-9.1-7c-0.65-0.5-1.67-0.09-2.05,0.54
			C175.7,162.43,176.06,163.22,176.7,163.72L176.7,163.72z"/>
	</g>
</g>
<g>
	<g>
		<path class="st0" d="M210.93,187.32c-4.94,2.18-10.21,3.67-15.56,4.4c-2.61,0.36-5.25,0.52-7.88,0.51c-1.76,0-4.35,0.1-5.28-1.72
			c-0.88-1.72-3.47-0.2-2.59,1.51c1.12,2.18,3.5,2.91,5.78,3.13c2.96,0.28,6.05,0.03,8.99-0.31c6.25-0.72,12.29-2.39,18.04-4.93
			C214.21,189.13,212.69,186.54,210.93,187.32L210.93,187.32z"/>
	</g>
</g>
<g>
	<g>
		<path class="st0" d="M252.8,195.69c-11.8,0.45-20.73-8.43-28.39-16.23c-1.36-1.38-3.48,0.74-2.12,2.12
			c8.23,8.38,17.87,17.59,30.51,17.1C254.72,198.62,254.73,195.62,252.8,195.69L252.8,195.69z"/>
	</g>
</g>
<g>
	<g>
		<path class="st0" d="M237.92,159.73c8.85,5.86,20.53,6.5,30.03,1.83c1.73-0.85,0.21-3.44-1.51-2.59c-8.56,4.2-19.07,3.41-27-1.83
			C237.82,156.07,236.32,158.66,237.92,159.73L237.92,159.73z"/>
	</g>
</g>
<g>
	<g>
		<path class="st0" d="M259.82,150.47c-0.6-4.32-3.64-7.89-7.25-10.13c-4.25-2.63-9.32-3.41-14.17-4.14
			c-0.81-0.12-1.6,0.2-1.85,1.05c-0.2,0.71,0.25,1.73,1.05,1.85c7.44,1.11,18.07,3.06,19.33,12.17c0.11,0.81,1.14,1.23,1.85,1.05
			C259.64,152.09,259.93,151.27,259.82,150.47L259.82,150.47z"/>
	</g>
</g>
<g>
	<g>
		<path class="st0" d="M200.77,139.97c-4.38,0.65-8.61,2.17-12.42,4.43c-1.66,0.98-0.15,3.58,1.51,2.59
			c3.6-2.14,7.56-3.52,11.7-4.13c0.8-0.12,1.24-1.13,1.05-1.85C202.38,140.16,201.57,139.85,200.77,139.97L200.77,139.97z"/>
	</g>
</g>
<g>
	<g>
		<path class="st0" d="M266.89,150.91c-0.61,4.5,0.07,8.9,0.82,13.33c0.75,4.4,1.5,8.92,0.44,13.33c-0.45,1.88,2.44,2.68,2.89,0.8
			c2.16-8.98-2.47-17.7-1.26-26.67c0.11-0.81-0.19-1.6-1.05-1.85C268.04,149.67,267,150.11,266.89,150.91L266.89,150.91z"/>
	</g>
</g>
<g>
	<g>
		<path class="st0" d="M289.89,141.12c-1.5,4.66-3.01,9.33-4.51,13.99c-1.45,4.49-2.97,8.98-4.01,13.59
			c-1.02,4.48-1.41,9-1.42,13.59c-0.01,3.57-0.53,8.33,2.66,10.79c1.58,1.22,3.67,1.54,5.62,1.42c2.44-0.15,4.89-1.1,7.34-0.63
			c1.89,0.36,2.69-2.53,0.8-2.89c-2.01-0.38-3.91-0.13-5.91,0.21c-1.63,0.28-3.41,0.59-5.02,0.05c-1.62-0.55-2.21-2.01-2.38-3.6
			c-0.21-1.92-0.12-3.9-0.11-5.82c0.02-4.33,0.43-8.56,1.41-12.78c0.98-4.21,2.35-8.31,3.68-12.42c1.58-4.9,3.16-9.8,4.74-14.71
			C293.38,140.07,290.48,139.28,289.89,141.12L289.89,141.12z"/>
	</g>
</g>
<g>
	<g>
		<path class="st0" d="M302.21,166.37c-0.22,3.01-0.25,6.12,0.87,8.97c0.96,2.43,2.52,4.56,4.47,6.29
			c4.41,3.94,10.18,5.58,15.76,7.09c1.87,0.5,2.66-2.39,0.8-2.89c-4.94-1.34-10.22-2.7-14.19-6.11c-1.65-1.42-3.1-3.15-3.94-5.18
			c-1.06-2.59-0.96-5.43-0.76-8.17C305.35,164.44,302.34,164.45,302.21,166.37L302.21,166.37z"/>
	</g>
</g>
<g>
	<g>
		<path class="st0" d="M329.1,135.19c0.22,11.37-3.3,22.53-9.95,31.74c-1.13,1.57,1.47,3.07,2.59,1.51
			c6.94-9.61,10.6-21.41,10.36-33.26C332.06,133.26,329.06,133.26,329.1,135.19L329.1,135.19z"/>
	</g>
</g>
<g>
	<g>
		<path class="st0" d="M315.85,120.82c0.79,0.14,1.55,0.36,2.3,0.65c0.27,0.1-0.14-0.07,0.03,0.01c0.09,0.04,0.18,0.08,0.27,0.13
			c0.18,0.09,0.36,0.18,0.53,0.27c0.35,0.19,0.69,0.4,1.02,0.62c0.17,0.11,0.33,0.23,0.49,0.35c-0.1-0.07-0.14-0.11-0.02-0.01
			c0.09,0.08,0.19,0.15,0.28,0.23c0.29,0.25,0.56,0.51,0.83,0.78c0.14,0.14,0.27,0.29,0.4,0.44c0.07,0.08,0.13,0.15,0.19,0.23
			c0.25,0.29-0.11-0.15,0.02,0.03c0.25,0.34,0.48,0.68,0.7,1.05c0.4,0.67,1.37,0.98,2.05,0.54c0.68-0.44,0.97-1.33,0.54-2.05
			c-1.89-3.18-5.19-5.52-8.84-6.17c-0.77-0.14-1.65,0.21-1.85,1.05C314.64,119.7,315.02,120.68,315.85,120.82L315.85,120.82z"/>
	</g>
</g>
<g>
	<g>
		<path class="st0" d="M259.57,121.61c15.03,0.22,30.06,0.17,45.09-0.15c1.93-0.04,1.93-3.04,0-3c-15.03,0.32-30.06,0.37-45.09,0.15
			C257.64,118.58,257.64,121.58,259.57,121.61L259.57,121.61z"/>
	</g>
</g>
</svg>
