<?xml version="1.0" standalone="no"?>
<!DOCTYPE svg PUBLIC "-//W3C//DTD SVG 20010904//EN"
 "http://www.w3.org/TR/2001/REC-SVG-20010904/DTD/svg10.dtd">
<svg version="1.0" xmlns="http://www.w3.org/2000/svg"
 width="688.000000pt" height="127.000000pt" viewBox="0 0 688.000000 127.000000"
 preserveAspectRatio="xMidYMid meet">
<metadata>
Created by potrace 1.16, written by Peter Selinger 2001-2019
</metadata>
<g transform="translate(0.000000,127.000000) scale(0.100000,-0.100000)"
fill="#FFFFFF" stroke="none">
<path d="M3635 1102 c-79 -26 -103 -116 -46 -173 54 -53 139 -35 167 36 14 37
14 46 1 77 -9 22 -27 40 -50 51 -37 18 -41 19 -72 9z"/>
<path d="M130 1056 c0 -32 2 -34 43 -40 54 -9 75 -25 87 -67 11 -37 14 -648 4
-699 -8 -38 -54 -70 -101 -70 -31 0 -33 -2 -33 -35 l0 -35 170 0 170 0 0 490
0 490 -170 0 -170 0 0 -34z"/>
<path d="M492 1054 l3 -39 50 -3 c120 -6 190 -51 205 -132 22 -119 -51 -199
-190 -210 l-65 -5 -3 -36 -3 -36 78 -5 c143 -8 204 -63 211 -187 5 -85 -13
-130 -67 -169 -52 -38 -121 -49 -179 -29 l-42 15 0 -55 0 -56 128 6 c265 10
382 89 382 258 0 44 -7 73 -25 109 -35 70 -83 102 -215 147 -10 3 -1 11 25 22
127 52 175 109 175 204 0 97 -35 148 -135 200 -56 29 -68 31 -198 35 l-138 5
3 -39z"/>
<path d="M3920 1054 c0 -23 3 -25 29 -19 42 9 103 -10 133 -42 23 -25 82 -141
159 -313 13 -30 78 -169 144 -310 146 -310 144 -307 209 -169 33 68 42 98 36
113 -4 12 -31 69 -58 128 -28 59 -61 128 -73 155 -12 26 -40 86 -61 133 -22
47 -51 110 -65 140 -13 30 -40 90 -60 132 l-37 78 -178 0 -178 0 0 -26z"/>
<path d="M4918 654 l-3 -426 -28 -24 c-19 -17 -40 -24 -68 -24 -38 0 -39 -1
-39 -35 l0 -35 243 2 242 3 0 30 c0 25 -5 31 -25 33 -50 6 -90 24 -103 45 -9
16 -13 118 -15 380 l-3 358 34 34 c29 29 43 35 76 35 37 0 41 2 41 25 l0 25
-175 0 -174 0 -3 -426z"/>
<path d="M1350 682 l0 -37 45 3 c66 6 103 -13 116 -57 22 -72 14 -82 -86 -111
-118 -34 -193 -69 -243 -114 -51 -47 -66 -83 -60 -148 5 -44 11 -57 39 -80 40
-34 79 -42 169 -36 51 4 82 13 122 35 47 27 53 34 56 67 2 20 1 36 -2 36 -3 0
-23 -9 -45 -21 -115 -60 -200 41 -109 130 29 28 141 81 173 81 13 0 15 -22 15
-134 l0 -134 35 -31 c32 -28 42 -31 104 -31 59 0 73 4 108 29 27 19 43 41 51
68 17 57 16 63 -18 63 -22 0 -30 -5 -30 -18 0 -38 -61 -60 -74 -26 -3 9 -6 80
-6 159 0 184 -11 239 -59 286 -43 43 -102 59 -221 59 l-80 0 0 -38z"/>
<path d="M2945 711 c-45 -11 -107 -46 -134 -75 -32 -34 -41 -127 -17 -173 22
-44 98 -90 196 -119 210 -62 221 -66 231 -91 19 -51 -29 -93 -107 -93 -32 0
-34 -2 -34 -35 0 -34 1 -35 39 -35 100 0 197 45 234 108 22 37 26 119 8 164
-24 63 -107 106 -293 153 -119 30 -148 46 -148 79 0 33 21 46 84 53 56 6 56 6
56 39 0 33 -1 34 -42 33 -24 -1 -56 -4 -73 -8z"/>
<path d="M3080 685 c0 -29 4 -35 21 -35 53 0 114 -25 151 -62 24 -24 47 -38
63 -38 25 0 25 1 25 85 l0 85 -30 0 c-17 0 -33 -7 -38 -17 -9 -15 -14 -15 -69
0 -33 10 -74 17 -91 17 -30 0 -32 -2 -32 -35z"/>
<path d="M3610 694 c-58 -13 -115 -26 -128 -29 -19 -5 -23 -11 -20 -38 3 -28
7 -32 34 -35 63 -6 69 -25 69 -207 0 -146 -2 -165 -19 -184 -12 -13 -31 -21
-53 -21 -31 0 -33 -2 -33 -35 l0 -35 193 2 192 3 0 30 c0 25 -5 30 -33 36 -19
4 -39 12 -45 18 -8 8 -13 91 -15 266 -3 233 -4 255 -20 254 -9 0 -64 -11 -122
-25z"/>
<path d="M5581 704 c-93 -33 -149 -82 -192 -171 -35 -70 -34 -198 1 -266 31
-61 86 -112 159 -145 80 -37 222 -43 303 -13 53 20 138 88 138 111 0 5 -12 16
-27 24 -26 13 -30 12 -65 -18 -46 -40 -97 -56 -174 -56 -41 0 -68 6 -88 19
-51 34 -92 111 -97 183 l-4 43 234 3 234 2 -7 45 c-19 140 -135 255 -258 255
-42 0 -38 -35 5 -54 19 -7 43 -26 55 -41 27 -34 62 -127 62 -165 l0 -30 -165
0 c-91 0 -165 1 -165 3 0 2 5 30 11 63 16 88 62 155 122 176 37 14 32 42 -8
45 -17 1 -50 -5 -74 -13z"/>
<path d="M1229 682 c-120 -62 -126 -192 -9 -192 23 0 43 7 52 18 20 23 49 107
55 160 5 39 4 42 -20 42 -14 0 -49 -13 -78 -28z"/>
<path d="M1877 693 c-4 -3 -7 -19 -7 -35 0 -24 4 -28 28 -28 15 0 37 -7 49
-15 19 -14 21 -25 25 -207 4 -206 10 -229 60 -274 39 -35 82 -47 160 -42 73 4
122 21 166 58 19 15 23 27 20 61 l-3 41 -25 -22 c-66 -59 -137 -61 -171 -7
-17 29 -19 53 -19 255 l0 222 -138 0 c-76 0 -142 -3 -145 -7z"/>
<path d="M2294 686 c-12 -32 1 -51 39 -57 21 -3 43 -11 50 -18 9 -9 13 -86 15
-268 l3 -256 47 7 c26 4 91 9 145 13 l97 6 0 32 c0 29 -4 33 -47 46 l-48 14
-7 75 c-4 41 -7 140 -7 220 0 80 0 157 0 173 l-1 27 -140 0 c-113 0 -142 -3
-146 -14z"/>
<path d="M6050 686 c0 -8 22 -28 48 -45 63 -40 328 -318 366 -382 36 -63 30
-79 -29 -79 -45 0 -45 0 -45 -35 l0 -35 200 0 200 0 0 34 c0 26 -6 38 -28 53
-26 17 -241 234 -293 297 -13 16 -39 45 -56 65 -42 47 -43 71 -3 71 28 0 30 3
30 35 l0 35 -195 0 c-160 0 -195 -2 -195 -14z"/>
<path d="M6520 665 c0 -30 3 -35 23 -35 39 0 50 -20 26 -46 -21 -22 -21 -23
-3 -48 11 -14 21 -26 24 -26 3 0 30 20 60 45 30 25 74 53 98 63 38 15 42 20
40 47 l-3 30 -132 3 -133 3 0 -36z"/>
<path d="M4088 328 c-3 -46 -11 -94 -17 -108 -19 -39 -59 -63 -107 -64 -38 -1
-44 -4 -44 -23 l0 -23 180 0 180 0 0 28 c0 29 0 29 -55 24 -50 -4 -57 -2 -85
26 -29 30 -30 33 -30 126 0 53 -4 96 -9 96 -5 0 -11 -37 -13 -82z"/>
<path d="M6200 264 c-36 -29 -84 -61 -107 -70 -39 -15 -43 -20 -43 -50 l0 -34
140 0 140 0 0 34 c0 32 -3 35 -32 38 -45 4 -47 29 -6 66 32 30 32 31 14 51
-11 12 -24 21 -30 20 -6 0 -40 -25 -76 -55z"/>
<path d="M2788 273 c-2 -5 -2 -47 0 -95 l3 -88 29 0 c18 0 34 8 43 20 13 19
17 19 48 6 19 -8 60 -17 92 -21 l57 -7 0 36 c0 33 -3 36 -27 36 -59 0 -106 22
-154 71 -43 44 -82 62 -91 42z"/>
</g>
</svg>
