 <svg version="1.0" xmlns="http://www.w3.org/2000/svg" width="700.000000pt" height="3798.000000pt" viewBox="0 0 700.000000 3798.000000" preserveAspectRatio="xMidYMid meet">
<metadata>
Created by potrace 1.12, written by Peter Selinger 2001-2015
</metadata>
<g transform="translate(0.000000,3798.000000) scale(0.100000,-0.100000)" fill="#112f3e" stroke="none">
<path d="M6213 37503 c-5 -21 -11 -23 -84 -23 -49 0 -79 -4 -79 -11 0 -5 -56
-66 -125 -134 -81 -80 -125 -132 -125 -145 0 -30 -973 -1002 -995 -994 -10 4
-91 -71 -264 -245 -180 -181 -256 -251 -272 -251 -16 0 -60 -37 -145 -125
-104 -107 -127 -125 -153 -125 -17 0 -31 -5 -31 -10 0 -6 -34 -44 -75 -86 -64
-63 -79 -73 -100 -68 -20 5 -27 1 -35 -20 -8 -23 -15 -26 -61 -26 -44 0 -55 4
-81 32 -28 30 -29 34 -27 120 l2 88 -39 31 c-22 17 -42 38 -45 48 -6 15 -26
18 -168 20 l-161 2 0 -846 c0 -838 0 -847 20 -852 11 -3 20 -10 20 -17 1 -6 2
-108 3 -226 l2 -215 33 -3 c23 -2 34 1 39 15 9 23 173 187 197 196 13 5 17 14
13 34 -4 23 6 37 67 98 40 39 80 74 89 78 13 5 16 13 11 31 -5 22 61 91 590
620 423 424 600 594 611 590 11 -5 66 45 185 165 151 153 172 171 195 165 19
-5 27 -2 32 12 14 36 141 154 167 154 16 0 42 20 85 65 53 57 64 65 86 59 21
-5 27 -2 32 14 6 23 32 36 55 27 9 -4 22 4 32 21 14 21 23 25 46 21 22 -5 29
-1 38 19 11 22 17 24 81 24 65 0 72 -2 101 -32 31 -31 32 -32 29 -121 -3 -85
-2 -90 19 -98 21 -8 22 -14 22 -119 0 -110 0 -112 29 -141 l29 -29 156 0 156
0 -2 1116 -3 1116 -98 2 c-94 1 -98 0 -104 -21z"></path>
<path d="M3190 36998 c0 -266 0 -488 0 -494 0 -7 -9 -14 -20 -17 -20 -5 -20
-12 -18 -227 l3 -222 177 0 177 -1 25 31 c24 27 26 38 26 120 0 86 1 90 24 96
20 5 23 12 22 43 l-1 38 54 3 c51 3 54 2 93 -40 22 -24 47 -53 55 -66 11 -16
24 -21 46 -20 21 2 34 -4 45 -20 19 -28 55 -28 74 0 11 16 24 22 45 20 22 -1
35 4 46 20 24 37 93 108 104 108 14 0 22 104 9 109 -5 2 -29 23 -52 47 -23 24
-47 44 -52 44 -13 0 -23 27 -16 44 4 10 -25 45 -80 99 -72 70 -86 89 -86 115
0 18 -5 32 -11 32 -21 0 -69 58 -69 84 0 17 -14 36 -45 63 -39 32 -45 42 -39
65 5 24 1 29 -21 38 -24 9 -27 14 -21 41 5 25 2 31 -20 39 -22 9 -26 15 -22
41 4 25 0 33 -19 42 -16 7 -23 19 -23 37 0 15 -9 35 -20 45 -11 10 -20 29 -20
42 0 14 -13 38 -29 54 l-29 29 -156 0 -157 0 1 -482z"></path>
<path d="M6054 34951 c-2 -2 -4 -28 -4 -56 0 -43 -4 -55 -22 -67 -19 -13 -21
-22 -19 -79 l2 -65 -52 -52 c-61 -61 -103 -70 -119 -27 -8 21 -14 24 -35 19
-23 -6 -41 9 -159 129 -73 74 -136 142 -139 151 -9 24 -26 20 -37 -9 -7 -20
-17 -25 -42 -25 -26 0 -38 -8 -58 -36 -14 -19 -35 -39 -48 -45 -20 -7 -22 -14
-17 -38 5 -23 1 -31 -20 -45 -38 -25 -32 -55 20 -101 39 -34 45 -44 39 -67 -4
-21 -1 -30 13 -35 10 -4 31 -20 47 -35 21 -22 27 -34 22 -53 -5 -19 -2 -27 11
-32 9 -4 50 -39 90 -79 63 -63 73 -76 67 -98 -5 -20 -2 -28 12 -33 11 -4 41
-29 68 -56 36 -36 47 -54 44 -71 -4 -19 5 -31 38 -57 32 -26 43 -41 44 -62 0
-28 47 -87 68 -87 14 0 22 -24 16 -47 -4 -14 3 -25 21 -37 21 -14 25 -23 20
-45 -5 -23 -1 -29 21 -40 22 -10 25 -16 20 -42 -5 -25 -2 -31 20 -40 23 -8 26
-14 20 -40 -4 -23 -2 -31 12 -36 21 -8 67 -53 73 -72 4 -10 40 -13 164 -14
l160 0 0 763 0 763 -178 1 c-98 0 -181 -1 -183 -3z"></path>
<path d="M4680 33155 l-10 -27 -115 4 c-110 3 -114 2 -124 -19 -10 -21 -17
-23 -100 -23 -80 0 -92 -2 -101 -20 -9 -16 -21 -20 -66 -20 -43 0 -56 -4 -61
-17 -9 -25 -24 -33 -50 -27 -16 5 -25 1 -30 -12 -10 -29 -25 -35 -66 -28 -35
6 -40 3 -79 -41 -36 -40 -45 -46 -70 -41 -24 5 -30 2 -39 -20 -8 -23 -14 -26
-40 -20 -22 4 -31 2 -36 -11 -9 -22 -384 -398 -407 -406 -13 -5 -16 -14 -11
-36 5 -23 1 -31 -20 -45 -21 -14 -25 -23 -21 -42 5 -18 0 -27 -20 -40 -18 -12
-24 -23 -20 -38 6 -25 -2 -40 -26 -49 -12 -4 -18 -17 -18 -35 0 -19 -8 -35
-22 -44 -19 -13 -22 -23 -19 -66 2 -45 0 -53 -19 -60 -21 -8 -21 -13 -22 -207
l0 -200 33 0 c27 0 36 -6 47 -27 15 -32 30 -36 39 -10 8 23 133 155 155 164
14 6 16 14 12 37 -6 27 -3 32 21 41 22 8 26 15 21 35 -5 21 11 42 129 160 100
101 141 135 159 135 14 0 31 9 40 22 11 16 25 22 46 20 21 -2 32 3 37 15 9 25
24 33 50 27 16 -5 25 -1 30 12 9 26 24 34 49 28 15 -4 26 2 38 22 17 24 22 26
67 21 47 -6 50 -4 59 19 9 23 15 25 57 23 38 -3 49 0 61 19 13 21 22 22 127
22 103 0 114 2 126 21 12 18 25 21 87 22 39 0 74 -2 77 -5 7 -7 7 -1807 0
-1819 -4 -5 -49 -9 -101 -9 -93 0 -95 0 -105 26 l-10 27 -89 -7 c-88 -7 -89
-6 -106 19 -16 24 -23 26 -78 25 -82 -3 -83 -3 -89 21 -5 17 -12 20 -58 18
-44 -2 -55 1 -67 19 -9 14 -25 22 -44 22 -21 0 -31 6 -35 20 -4 15 -14 20 -39
20 -27 0 -37 5 -46 24 -8 20 -16 24 -37 20 -23 -5 -35 4 -88 61 -42 45 -67 65
-78 62 -18 -8 -45 1 -45 15 0 12 -56 68 -68 68 -14 0 -23 27 -16 45 4 10 -10
30 -41 57 -39 35 -46 46 -41 68 4 22 0 29 -21 39 -24 11 -25 16 -21 62 4 40 2
52 -11 57 -21 8 -65 53 -74 75 -4 11 -17 17 -37 17 -23 0 -33 -6 -40 -25 -5
-14 -16 -25 -25 -25 -11 0 -15 -10 -15 -35 0 -27 -5 -38 -21 -43 -20 -8 -21
-16 -23 -126 -1 -113 0 -117 22 -123 20 -5 22 -11 22 -79 0 -63 3 -75 20 -84
16 -9 20 -21 20 -65 0 -41 4 -55 14 -55 22 0 29 -18 27 -72 -1 -38 2 -50 16
-55 25 -9 33 -24 27 -50 -5 -16 -1 -25 12 -30 26 -9 35 -24 28 -46 -4 -13 8
-30 41 -59 41 -36 46 -45 41 -70 -4 -22 -1 -30 12 -35 30 -12 72 -61 72 -85 0
-16 36 -58 125 -145 69 -67 125 -126 125 -132 0 -6 14 -11 31 -11 32 0 78 -37
92 -74 6 -14 13 -17 34 -11 22 5 32 -1 69 -40 30 -33 48 -45 61 -41 22 7 37
-2 46 -27 4 -11 16 -18 29 -17 39 3 45 1 51 -20 4 -17 14 -20 61 -20 45 0 57
-4 66 -20 9 -17 21 -20 81 -20 63 0 70 -2 78 -22 8 -22 12 -22 144 -19 135 3
137 2 147 -21 11 -22 15 -23 125 -23 110 0 114 1 125 23 10 23 12 23 167 21
153 -2 157 -1 165 20 7 21 14 22 80 20 65 -2 72 0 79 19 6 16 17 22 37 22 18
0 36 9 49 24 15 17 28 23 42 19 14 -3 30 4 51 25 16 17 30 35 30 40 0 14 24
22 47 16 14 -4 25 3 37 21 14 22 22 25 47 20 23 -5 31 -3 36 12 4 10 72 82
151 161 103 102 142 147 138 159 -5 11 13 35 59 78 48 46 65 69 65 89 0 18 7
30 24 37 21 10 24 17 19 45 -5 29 -2 35 21 43 22 9 25 15 20 40 -6 27 -3 32
21 41 23 9 26 14 20 40 -6 26 -3 31 20 40 23 9 26 14 20 39 -5 25 -2 33 20 47
24 16 26 22 25 78 -3 82 -3 83 21 89 18 5 20 12 18 75 -2 73 3 92 27 92 12 0
14 70 14 489 0 481 0 490 -20 496 -22 7 -22 11 -20 96 1 49 -2 58 -24 72 -23
15 -25 21 -19 67 5 47 4 50 -21 60 -24 9 -27 14 -21 40 5 24 3 31 -12 37 -10
4 -31 20 -47 35 -21 21 -27 35 -22 52 4 18 0 28 -20 41 -21 14 -25 22 -20 46
3 16 1 29 -4 29 -19 0 -130 118 -125 133 9 23 -218 247 -250 247 -14 0 -29 8
-35 20 -8 14 -21 20 -45 20 -33 0 -35 -2 -35 -34 0 -26 -8 -41 -35 -65 -20
-17 -40 -31 -45 -31 -5 0 -7 -13 -4 -29 5 -22 1 -32 -17 -45 -19 -13 -24 -26
-26 -65 -1 -43 2 -50 24 -60 21 -10 24 -16 19 -42 -4 -23 -2 -31 12 -36 34
-14 112 -101 112 -127 0 -16 15 -37 45 -64 39 -34 45 -44 39 -66 -5 -20 -2
-27 12 -33 26 -9 34 -24 28 -50 -5 -18 0 -25 21 -33 24 -9 26 -14 21 -43 -6
-30 -3 -35 20 -46 25 -11 26 -15 22 -62 -5 -46 -3 -51 18 -60 23 -8 24 -13 24
-103 0 -85 2 -95 20 -101 18 -6 19 -18 22 -243 3 -235 3 -237 -19 -258 -19
-18 -23 -32 -23 -88 0 -61 -2 -67 -24 -77 -20 -9 -24 -17 -20 -43 4 -27 -1
-35 -40 -65 -37 -29 -44 -39 -40 -61 5 -21 -2 -31 -39 -59 -25 -18 -48 -42
-51 -53 -4 -17 -10 -19 -31 -14 -28 7 -45 -6 -118 -93 -23 -28 -33 -32 -56
-28 -23 5 -30 2 -39 -19 -9 -18 -19 -24 -41 -24 -20 0 -34 -7 -41 -20 -7 -13
-21 -20 -39 -20 -18 0 -34 -8 -43 -22 -12 -18 -23 -21 -66 -19 -47 2 -53 0
-62 -23 -9 -23 -13 -25 -59 -19 -47 5 -51 4 -60 -19 l-9 -25 -158 1 c-143 2
-157 0 -162 -16 -5 -22 -35 -31 -88 -26 l-39 3 -2 1305 c-2 1159 -4 1305 -18
1308 -9 2 -19 -7 -25 -23z"></path>
<path d="M1077 29110 c-1 -3 -1 -440 1 -973 l2 -967 2330 0 2330 0 95 -94 c80
-80 95 -99 90 -119 -5 -18 -1 -26 21 -35 22 -11 25 -17 20 -43 -5 -25 -2 -31
20 -39 25 -10 26 -12 22 -86 -3 -71 -2 -75 19 -80 21 -6 23 -11 25 -126 l3
-119 180 -1 180 -1 3 879 c2 873 2 879 -18 894 -20 15 -21 27 -23 444 l-2 429
-139 -1 c-132 0 -140 -2 -148 -21 -4 -12 -14 -21 -23 -21 -12 0 -15 -14 -15
-75 0 -69 -2 -76 -23 -86 -21 -9 -22 -15 -19 -84 4 -72 3 -75 -21 -84 -22 -9
-24 -13 -19 -60 4 -47 3 -51 -22 -63 -22 -9 -26 -16 -21 -36 5 -20 -5 -34 -60
-87 -36 -34 -65 -68 -65 -74 0 -13 -10 -15 -64 -11 -30 1 -43 -3 -56 -20 l-16
-21 -461 1 c-454 1 -462 0 -476 -20 -14 -20 -15 -20 -1515 -20 l-1501 0 -156
156 c-134 134 -154 159 -149 180 5 19 1 26 -21 34 l-28 11 5 93 c5 92 5 94
-19 105 -24 11 -25 14 -22 103 3 82 1 92 -16 98 -10 4 -21 15 -25 25 -5 15
-19 18 -104 19 -54 1 -99 -1 -99 -4z"></path>
<path d="M5260 25571 c-9 -19 -16 -22 -41 -17 -25 5 -31 2 -39 -19 -8 -20 -17
-25 -44 -25 -25 0 -35 -5 -39 -20 -4 -15 -14 -20 -42 -20 -28 0 -38 -5 -42
-20 -6 -22 -8 -23 -71 -20 -33 1 -44 -3 -49 -17 -9 -25 -24 -33 -49 -27 -15 4
-26 -2 -37 -20 -14 -20 -23 -24 -45 -20 -23 5 -30 1 -40 -21 -11 -23 -16 -26
-42 -20 -26 6 -31 3 -40 -20 -9 -24 -14 -27 -41 -21 -25 5 -31 2 -40 -20 -8
-23 -14 -26 -44 -21 -19 3 -36 2 -36 -4 -1 -5 -2 -15 -3 -21 0 -7 -18 -14 -40
-16 -28 -2 -40 -9 -43 -23 -6 -20 -13 -22 -51 -19 -13 1 -25 -6 -29 -17 -10
-27 -24 -33 -68 -26 -36 5 -43 2 -58 -21 -14 -21 -22 -24 -47 -20 -26 6 -31 3
-40 -21 -9 -24 -14 -27 -41 -21 -25 5 -31 2 -40 -20 -8 -23 -14 -26 -40 -20
-25 5 -31 2 -39 -19 -8 -20 -16 -25 -46 -25 -27 0 -37 -5 -41 -20 -4 -15 -14
-20 -40 -20 -26 0 -36 -5 -40 -20 -5 -20 -12 -23 -49 -21 -13 1 -28 -8 -38
-23 -14 -23 -21 -25 -60 -20 -40 6 -46 4 -61 -20 -15 -22 -23 -26 -46 -21 -25
6 -30 3 -39 -20 -9 -23 -14 -26 -40 -20 -26 6 -31 3 -40 -20 -9 -24 -14 -27
-41 -21 -25 5 -31 2 -41 -19 -9 -20 -19 -25 -48 -25 -29 0 -39 -5 -43 -20 -4
-15 -14 -20 -36 -20 -21 0 -34 -6 -38 -17 -10 -27 -21 -31 -67 -26 -37 5 -44
2 -59 -21 -14 -21 -22 -24 -47 -20 -25 6 -31 3 -40 -21 -9 -23 -14 -26 -40
-20 -26 6 -31 3 -40 -20 -9 -24 -14 -27 -41 -21 -25 5 -31 2 -39 -20 -9 -23
-14 -25 -43 -20 -29 5 -35 3 -45 -19 -9 -20 -19 -25 -46 -25 -25 0 -35 -5 -39
-20 -4 -17 -14 -20 -60 -20 -46 0 -55 -3 -60 -20 -4 -14 -14 -20 -35 -20 -21
0 -35 -8 -46 -25 -13 -20 -22 -23 -46 -19 -25 6 -31 3 -40 -21 -9 -23 -14 -26
-40 -20 -26 6 -31 3 -40 -20 -9 -23 -15 -27 -39 -22 -24 5 -32 1 -46 -19 -13
-21 -22 -25 -45 -21 -22 5 -29 1 -39 -20 -11 -24 -16 -25 -62 -21 -46 5 -51 3
-60 -18 -6 -18 -16 -24 -38 -24 -18 0 -34 -8 -43 -22 -11 -17 -23 -22 -47 -20
-22 2 -33 -3 -38 -15 -9 -25 -24 -33 -50 -27 -16 5 -25 1 -30 -12 -9 -26 -24
-34 -51 -27 -18 4 -24 1 -29 -15 -7 -27 -33 -35 -82 -27 -34 6 -38 4 -49 -21
-11 -22 -17 -25 -43 -20 -25 5 -31 2 -40 -20 -8 -23 -14 -26 -40 -20 -25 5
-31 2 -39 -19 -7 -19 -17 -25 -39 -25 -19 0 -35 -8 -45 -22 -12 -16 -24 -22
-47 -20 -24 2 -32 -2 -36 -18 -6 -21 -11 -23 -56 -20 l-27 2 2 -994 3 -993
119 0 119 0 -2 263 -2 262 26 10 c24 9 25 13 19 59 -6 46 -4 50 21 67 18 12
25 23 21 37 -6 23 2 47 16 47 17 0 69 59 67 77 -3 33 1 43 16 43 9 0 20 12 25
26 9 22 15 25 36 20 22 -6 32 0 67 40 35 40 44 45 69 40 22 -4 30 -1 35 12 12
31 61 72 86 72 15 0 31 10 41 25 13 19 22 24 40 19 17 -4 27 1 39 20 14 21 22
24 47 20 25 -6 31 -3 40 21 9 23 14 26 40 20 26 -6 31 -3 40 20 9 24 14 27 41
21 25 -5 31 -2 40 20 8 23 14 26 44 21 31 -5 36 -3 41 19 5 19 13 24 40 24 23
0 37 6 44 20 6 12 21 20 37 20 14 0 36 11 48 24 15 16 30 23 43 19 14 -3 25 3
37 21 14 20 22 24 46 19 24 -5 30 -1 39 22 9 23 14 26 40 20 26 -6 31 -3 40
20 9 24 14 27 41 21 25 -5 31 -2 41 20 12 25 15 26 66 21 49 -5 54 -4 62 19 8
19 17 24 44 24 25 0 35 5 39 20 4 14 14 20 32 20 16 0 37 10 50 24 15 16 30
23 43 19 14 -3 25 3 37 21 14 20 22 24 46 19 24 -5 30 -1 39 22 10 26 12 27
60 20 48 -7 50 -6 60 20 9 24 14 26 43 21 29 -5 35 -3 46 20 10 22 16 25 42
20 25 -5 31 -2 39 19 8 20 17 25 44 25 25 0 35 5 39 20 4 14 14 20 35 20 19 0
35 8 44 22 11 17 23 22 47 20 25 -2 33 2 41 22 9 23 13 25 59 19 44 -5 52 -3
58 13 9 26 24 34 49 28 15 -4 26 2 38 21 14 22 22 25 47 20 25 -6 30 -3 39 20
9 24 14 27 41 21 25 -5 31 -2 39 19 8 20 17 25 44 25 25 0 35 5 39 20 4 14 14
20 34 20 19 0 37 9 50 24 18 20 27 23 67 19 38 -5 47 -3 53 13 9 26 24 34 49
28 15 -4 26 2 37 20 14 21 22 24 47 20 25 -6 31 -3 40 21 9 23 14 26 40 20 26
-6 31 -3 40 20 9 24 14 27 41 21 25 -5 31 -2 40 20 8 23 14 26 44 21 19 -3 36
-2 36 4 1 5 2 15 3 22 0 6 18 13 40 15 28 2 40 9 43 23 4 14 14 19 39 19 24 0
37 6 41 18 9 24 24 32 49 26 15 -4 26 2 38 21 16 24 21 25 66 19 47 -6 50 -5
60 21 9 23 14 26 40 20 26 -6 31 -3 40 20 9 24 14 27 41 21 25 -5 31 -2 40 20
8 23 14 26 44 21 31 -5 36 -3 41 19 5 20 12 24 41 24 26 0 36 5 40 20 4 15 14
20 38 20 24 0 37 7 49 25 13 19 22 24 40 19 17 -4 27 1 39 20 14 21 22 24 47
20 25 -6 31 -3 40 21 9 23 14 26 40 20 26 -6 31 -3 40 20 9 24 14 27 41 21 25
-5 31 -2 39 20 9 22 15 26 41 22 25 -4 33 0 42 19 7 16 18 23 39 23 29 0 88
46 88 68 0 13 27 23 44 16 19 -7 206 180 206 207 0 27 -98 118 -128 119 -24 0
-73 42 -85 72 -5 14 -13 16 -36 12 -27 -6 -32 -3 -41 21 -9 23 -14 26 -40 20
-26 -6 -31 -3 -40 20 -10 25 -12 26 -65 20 -53 -7 -55 -6 -65 20 -8 21 -15 26
-33 21 -26 -6 -41 2 -50 27 -5 12 -16 17 -38 15 -24 -2 -36 3 -47 20 -9 14
-25 22 -44 22 -21 0 -31 6 -35 20 -4 15 -14 20 -39 20 -27 0 -37 5 -43 22 -8
21 -13 23 -79 20 -67 -4 -72 -2 -82 20 -10 22 -17 24 -85 23 -68 0 -75 -2 -85
-24z"></path>
<path d="M6135 23640 c-3 -5 -5 -143 -4 -307 1 -254 -1 -298 -14 -302 -24 -9
-67 -67 -67 -90 0 -28 -92 -121 -120 -121 -24 0 -90 -49 -90 -67 0 -17 -19
-20 -86 -15 -56 4 -61 3 -78 -22 l-17 -27 -419 1 c-231 1 -424 -1 -430 -5 -14
-8 -13 -52 1 -61 6 -4 81 -6 165 -5 151 2 154 2 162 -20 9 -22 10 -22 205 -20
l197 2 10 -26 c10 -27 11 -27 98 -25 112 3 109 4 115 -21 5 -17 11 -20 29 -16
27 7 42 -1 51 -25 4 -12 17 -18 35 -18 42 0 172 -131 172 -173 0 -20 6 -30 20
-34 21 -6 24 -12 20 -51 -1 -16 5 -25 19 -29 24 -6 24 -7 21 -89 -1 -54 1 -62
23 -77 24 -15 24 -17 19 -141 l-5 -126 37 -36 36 -35 87 3 88 3 0 990 0 990
-137 3 c-85 2 -139 -1 -143 -8z"></path>
<path d="M6129 21222 c-7 -19 -15 -22 -46 -20 l-38 3 4 -54 c3 -47 0 -57 -20
-71 -20 -16 -22 -25 -20 -87 2 -66 1 -70 -24 -81 -21 -10 -24 -17 -19 -37 5
-19 -1 -31 -24 -55 -30 -30 -31 -30 -140 -30 -99 0 -111 -2 -123 -20 -14 -21
-19 -21 -832 -20 l-818 0 -7 -21 c-8 -21 -10 -21 -436 -19 -423 1 -428 1 -433
-20 -6 -21 -10 -23 -57 -24 l-29 -1 -1 -97 c-1 -92 0 -98 22 -108 23 -10 24
-14 20 -106 -3 -91 -2 -95 20 -101 20 -5 22 -11 22 -78 0 -63 3 -74 21 -87 20
-13 22 -22 20 -107 -2 -86 -1 -93 18 -98 24 -6 24 -7 21 -89 -1 -55 1 -62 24
-77 25 -17 25 -19 21 -107 -5 -90 -5 -90 21 -100 26 -10 27 -12 22 -84 -5 -71
-4 -75 19 -85 23 -11 25 -15 21 -83 -2 -63 -1 -72 16 -78 11 -3 22 -14 26 -24
5 -16 21 -18 136 -18 l130 0 33 31 c21 20 31 36 27 48 -7 22 3 37 28 46 17 7
18 16 14 98 -4 86 -3 92 19 106 14 10 23 25 23 42 0 18 13 37 40 61 22 19 40
40 40 47 0 17 36 26 79 18 34 -5 38 -3 49 20 l12 27 155 -4 c152 -3 154 -3
164 20 l11 22 590 0 590 0 11 -22 c10 -22 13 -23 139 -20 l128 4 97 -97 97
-97 -4 -69 c-3 -65 -2 -70 19 -75 21 -6 22 -12 25 -106 l3 -99 180 -1 180 0 3
697 c2 690 2 697 -18 702 -11 3 -20 10 -21 17 0 6 -1 164 -2 350 l-2 339 -119
1 c-115 1 -119 0 -127 -22z"></path>
<path d="M1450 20815 c-8 -22 -16 -25 -56 -25 -37 0 -52 -5 -69 -24 -15 -16
-30 -23 -42 -20 -14 4 -25 -3 -36 -20 -14 -21 -22 -24 -47 -20 -23 5 -31 2
-37 -12 -9 -24 -92 -108 -115 -117 -14 -5 -16 -13 -12 -36 6 -26 3 -32 -20
-40 -22 -9 -25 -15 -20 -40 6 -27 3 -32 -21 -41 -23 -9 -26 -14 -20 -39 5 -25
2 -33 -19 -46 -25 -16 -26 -22 -26 -106 0 -87 1 -90 26 -99 22 -9 25 -14 19
-40 -6 -26 -3 -31 20 -40 24 -9 26 -14 21 -43 -5 -29 -3 -35 20 -46 22 -10 25
-16 20 -41 -3 -17 -1 -30 4 -30 13 0 115 -101 123 -122 5 -13 13 -16 36 -12
24 5 32 1 46 -20 14 -20 22 -24 46 -19 23 4 30 1 37 -17 8 -21 13 -22 165 -23
155 -2 156 -2 167 22 10 21 15 23 61 19 40 -4 52 -2 57 11 8 22 174 186 196
194 14 6 17 14 12 37 -4 25 -1 33 20 47 19 12 24 22 20 39 -5 18 0 27 19 40
25 16 25 18 25 150 0 76 -4 134 -9 134 -24 0 -39 31 -34 68 5 38 3 40 -112
156 -80 80 -122 115 -134 112 -19 -7 -35 3 -44 27 -4 12 -16 17 -35 15 -33 -2
-52 8 -52 28 0 11 -16 14 -75 14 -71 0 -76 1 -85 25 -5 14 -14 25 -20 25 -6 0
-15 -11 -20 -25z"></path>
<path d="M5180 18614 c-10 -26 -12 -27 -84 -22 -71 5 -75 4 -85 -20 -10 -20
-16 -23 -42 -18 -23 4 -31 2 -36 -12 -4 -9 -71 -81 -150 -159 -109 -108 -143
-148 -143 -167 0 -15 -8 -30 -20 -36 -13 -7 -20 -21 -20 -41 0 -22 -6 -32 -24
-39 -22 -8 -24 -14 -19 -43 5 -31 2 -35 -21 -41 -24 -6 -26 -10 -20 -41 5 -31
3 -36 -20 -45 -22 -8 -25 -14 -20 -39 6 -27 3 -32 -21 -41 -26 -10 -27 -12
-20 -60 6 -47 5 -50 -20 -62 -25 -11 -27 -15 -21 -58 6 -48 1 -63 -26 -73 -14
-5 -18 -18 -18 -61 0 -46 -3 -56 -20 -61 -17 -5 -20 -15 -20 -59 0 -44 -4 -56
-22 -68 -19 -13 -21 -22 -19 -81 2 -62 1 -68 -22 -78 -23 -10 -24 -14 -19 -85
4 -72 4 -74 -21 -83 -25 -10 -26 -13 -20 -60 5 -47 4 -51 -20 -62 -26 -12 -26
-13 -20 -85 6 -73 6 -73 -21 -84 -26 -10 -27 -12 -25 -78 3 -71 -3 -92 -27
-92 -12 0 -14 -12 -13 -52 2 -43 -1 -54 -19 -66 -14 -9 -22 -25 -22 -43 0 -18
-7 -32 -20 -39 -13 -7 -20 -21 -20 -39 0 -21 -17 -45 -72 -99 l-71 -72 -109 0
c-108 0 -110 0 -139 29 -17 17 -29 40 -29 55 0 14 -9 31 -22 40 -16 12 -22 24
-20 47 2 24 -2 32 -18 36 -23 6 -23 3 -20 110 2 77 0 82 -24 98 l-26 17 4 135
c3 131 3 135 -19 143 -12 5 -25 16 -29 25 -5 14 -25 16 -162 13 l-156 -3 -1
-242 -2 -242 23 -11 c23 -10 24 -14 20 -105 -1 -52 0 -96 5 -96 4 -1 13 -2 20
-3 8 -1 13 -22 15 -60 3 -48 7 -59 23 -63 20 -6 22 -13 19 -51 -1 -13 6 -25
17 -29 25 -9 33 -24 27 -49 -4 -15 2 -26 21 -38 22 -14 25 -22 20 -47 -5 -23
-3 -31 12 -36 10 -4 31 -20 47 -35 21 -22 27 -34 22 -53 -5 -19 -2 -27 11 -32
10 -4 64 -54 119 -111 83 -85 105 -103 122 -98 16 5 25 0 38 -19 11 -17 25
-25 45 -25 18 0 32 -7 39 -20 9 -17 21 -20 84 -20 68 0 74 -2 79 -22 6 -23 8
-23 187 -23 179 0 181 0 187 23 5 20 11 22 79 22 63 0 75 3 84 20 6 12 21 20
36 20 32 0 294 258 294 291 0 22 43 71 73 82 15 5 17 13 12 36 -5 25 -2 33 20
47 17 11 24 23 20 34 -8 25 3 47 27 53 16 5 19 11 15 29 -7 27 1 42 26 51 11
4 18 16 17 29 -4 39 -1 46 20 53 17 5 20 15 20 60 0 44 4 56 20 65 16 9 20 21
20 61 0 43 3 51 24 60 20 10 23 17 19 43 -4 27 -1 34 20 43 23 11 24 14 19 82
-5 69 -4 71 22 81 25 9 26 12 20 59 -6 46 -4 50 21 67 24 16 27 22 22 59 -7
45 -1 58 27 68 16 6 18 16 15 80 -4 67 -2 73 19 82 19 8 22 17 22 62 0 42 4
54 20 63 16 9 20 21 20 64 0 48 3 54 23 60 22 5 23 9 19 61 -4 51 -3 55 21 64
25 10 26 13 20 60 -5 47 -4 51 21 62 22 11 26 17 21 40 -5 22 -1 31 20 45 19
12 25 23 21 37 -4 15 10 35 50 75 l56 54 124 0 c68 -1 128 -1 133 -1 5 -1 11
-10 14 -21 4 -15 14 -20 37 -20 46 0 94 -50 86 -90 -5 -26 -2 -31 19 -36 21
-5 25 -12 25 -41 0 -26 5 -36 20 -40 17 -4 20 -14 20 -58 0 -43 4 -55 22 -67
21 -14 22 -20 19 -161 l-3 -146 52 -52 53 -52 110 -1 c89 -1 111 2 115 14 8
19 53 65 71 71 10 4 14 25 14 79 0 66 -2 74 -21 81 -21 8 -22 13 -22 182 0
168 -1 175 -22 189 -19 13 -21 22 -19 86 2 62 -1 73 -16 79 -27 10 -31 21 -26
67 5 37 2 44 -21 59 -20 13 -25 23 -20 41 4 17 -1 27 -21 40 -22 14 -25 22
-20 47 6 25 3 30 -20 39 -24 9 -27 14 -21 41 4 23 2 31 -12 36 -31 12 -72 61
-72 86 0 33 -175 207 -208 207 -24 0 -73 42 -85 72 -5 14 -13 16 -36 12 -26
-6 -32 -3 -40 18 -9 24 -12 25 -84 20 -91 -6 -123 1 -130 28 -5 19 -13 20
-221 20 l-216 0 -10 -26z"></path>
<path d="M3070 18468 c-1 -2 -1 -75 -2 -163 0 -124 2 -160 13 -164 7 -2 35
-26 62 -53 l49 -49 0 -125 c-1 -68 -1 -128 -1 -133 -1 -5 -10 -13 -21 -16 -17
-5 -20 -15 -20 -60 0 -44 -4 -56 -20 -65 -18 -10 -20 -21 -20 -104 0 -89 -1
-94 -22 -99 -23 -6 -23 -7 -21 -180 l2 -175 27 -27 c28 -28 30 -28 154 -28
l125 0 34 32 34 32 -7 104 -7 105 27 10 c26 10 27 12 22 79 -6 74 -3 84 25 94
15 6 18 16 16 59 -2 43 1 54 19 66 14 9 22 25 22 44 0 21 6 31 20 35 14 4 20
14 20 35 0 31 38 78 74 91 14 6 17 13 11 34 -6 24 4 37 99 129 82 79 106 108
106 128 0 18 8 30 24 38 20 9 24 16 19 38 -4 22 0 32 18 44 22 14 24 21 24
108 l-1 93 -54 1 c-43 1 -57 6 -68 23 -14 21 -18 21 -398 21 -211 0 -384 -1
-384 -2z"></path>
<path d="M6161 16866 l-33 -34 3 -147 c3 -143 2 -149 -19 -163 -18 -12 -22
-24 -22 -63 0 -38 -4 -51 -20 -59 -16 -9 -20 -21 -20 -63 -1 -49 -3 -54 -45
-86 -38 -30 -43 -39 -38 -63 5 -23 1 -29 -22 -38 -22 -8 -26 -15 -21 -35 6
-22 -13 -44 -147 -178 -84 -84 -161 -156 -171 -160 -14 -5 -17 -13 -12 -33 6
-22 0 -32 -39 -66 -34 -30 -45 -47 -45 -68 0 -19 -7 -33 -20 -40 -15 -8 -20
-21 -20 -56 0 -37 6 -51 29 -75 l30 -29 507 2 507 3 0 94 c0 88 -2 95 -22 103
-20 7 -22 14 -20 56 l3 48 -86 79 -86 80 -1 73 c-1 69 0 73 25 82 25 10 26 13
20 60 -6 46 -5 50 20 66 24 16 26 22 20 61 -5 38 -3 45 19 59 24 15 25 21 25
111 0 86 2 95 20 100 19 5 20 14 20 164 l0 159 26 10 c21 8 25 15 22 42 l-3
33 -175 3 -176 2 -33 -34z"></path>
<path d="M6058 14819 c-44 -47 -48 -55 -48 -100 0 -43 -3 -51 -25 -59 -22 -9
-24 -13 -18 -59 5 -47 4 -51 -20 -62 -25 -11 -25 -14 -20 -80 6 -68 5 -69 -27
-99 l-34 -32 -190 2 c-182 1 -191 0 -206 -20 l-16 -21 -1087 1 -1087 0 -10
-25 c-9 -24 -14 -25 -62 -23 l-53 3 -3 -590 -2 -590 21 -16 c21 -16 22 -23 20
-168 -2 -132 0 -152 14 -157 9 -4 20 -16 25 -28 7 -19 15 -21 106 -20 75 1 99
4 102 15 3 8 22 30 43 50 29 26 39 44 39 66 0 22 6 32 20 36 18 5 20 14 20 81
0 65 3 77 20 86 15 8 20 21 20 56 0 41 5 49 55 100 l55 56 149 -4 c149 -4 150
-4 160 19 l11 23 1149 -2 1150 -3 11 23 c10 23 15 24 98 21 48 -2 93 0 100 5
22 14 14 62 -13 74 l-25 12 0 174 c0 165 -1 174 -21 187 -20 14 -20 22 -19
229 1 211 0 215 -21 225 -21 10 -21 13 -23 335 l-1 325 -155 2 -155 2 -47 -50z"></path>
<path d="M5843 13150 c-6 -24 -4 -23 -114 -20 -103 2 -119 -9 -68 -49 19 -14
69 -61 111 -104 66 -67 77 -82 72 -103 -5 -20 -2 -26 14 -31 12 -3 24 -13 27
-23 3 -10 15 -20 27 -23 17 -5 20 -11 14 -37 -5 -26 -2 -33 14 -37 24 -6 34
-41 26 -86 -5 -29 -3 -35 19 -45 25 -12 25 -12 25 -147 0 -135 0 -136 -25
-145 -21 -8 -24 -14 -19 -39 5 -26 2 -32 -20 -43 -22 -9 -26 -17 -21 -36 5
-19 -4 -33 -49 -78 -37 -36 -64 -54 -80 -54 -15 0 -30 -8 -36 -20 -9 -16 -21
-20 -65 -20 -45 0 -55 -3 -60 -20 -3 -11 -12 -20 -18 -20 -7 -1 -131 -1 -277
0 -257 1 -265 0 -280 -20 l-16 -21 -944 -2 -945 -2 -3 -573 c-2 -567 -2 -574
18 -579 11 -3 20 -10 21 -17 0 -6 0 -86 -1 -179 -1 -147 1 -168 15 -173 9 -4
20 -16 24 -27 7 -18 17 -19 146 -19 129 0 139 1 146 19 4 11 14 23 23 26 13 5
16 26 16 123 0 107 1 116 20 121 17 4 20 14 20 54 0 46 4 53 53 103 l53 54 87
-5 c78 -5 87 -4 94 13 3 10 11 22 17 27 6 4 247 7 535 6 l525 -1 8 22 8 21
364 -3 365 -3 11 23 c10 23 14 24 102 21 87 -3 91 -2 99 20 8 20 15 22 58 20
45 -3 51 0 82 37 43 50 47 53 69 47 13 -3 46 24 114 93 80 81 95 101 90 120
-5 17 -1 26 12 31 11 4 32 20 48 35 25 26 28 34 23 74 -4 39 -2 47 19 61 16
10 24 25 24 44 0 18 7 32 20 39 19 10 20 21 20 414 0 395 0 404 -20 409 -18 5
-20 14 -20 81 0 64 -3 78 -17 83 -25 9 -33 24 -27 49 4 15 -2 26 -20 37 -23
15 -25 21 -19 67 5 47 4 50 -21 60 -24 9 -27 14 -21 40 5 24 3 32 -12 37 -33
13 -113 101 -113 125 -1 13 -22 45 -51 77 -49 53 -51 53 -94 47 -40 -5 -47 -3
-61 19 -15 23 -23 25 -86 25 -61 0 -71 -2 -75 -20z"></path>
<path d="M5623 10201 l-33 -27 0 -110 0 -109 36 -28 c30 -25 43 -28 92 -27 76
3 82 2 82 -12 0 -7 20 -31 45 -52 34 -31 43 -45 39 -61 -4 -16 2 -26 20 -39
24 -15 26 -23 26 -82 l0 -66 -55 -55 -55 -54 -277 1 c-272 2 -277 1 -285 -19
-7 -21 -8 -21 -597 -21 -580 0 -590 0 -601 -20 -10 -18 -21 -20 -126 -20 -100
0 -115 -2 -121 -17 -10 -27 -21 -31 -67 -26 -37 5 -44 2 -59 -21 -13 -20 -23
-25 -41 -20 -17 4 -27 -1 -40 -21 -14 -22 -22 -25 -47 -20 -23 5 -31 3 -36
-12 -4 -10 -72 -82 -151 -160 -117 -115 -143 -145 -137 -162 4 -15 -1 -24 -20
-37 -19 -12 -25 -23 -21 -38 6 -25 -2 -40 -26 -49 -14 -5 -18 -18 -18 -61 0
-48 -3 -54 -22 -59 -22 -6 -23 -9 -20 -122 4 -110 3 -115 -18 -123 l-21 -8 0
-488 c0 -269 2 -491 5 -493 2 -2 93 -4 202 -5 l199 0 3 56 c3 50 1 57 -19 64
-21 8 -21 14 -24 206 l-3 197 25 16 c22 15 24 23 23 77 -3 81 -2 86 13 87 6 0
46 38 87 84 68 76 78 84 106 80 26 -3 34 1 43 22 11 23 16 25 62 21 46 -5 51
-3 60 18 8 24 11 24 142 24 l133 0 53 -51 c45 -43 52 -55 48 -79 -5 -22 -1
-29 20 -39 21 -10 24 -16 19 -42 -5 -25 -2 -31 20 -39 23 -9 25 -14 23 -62 -3
-45 0 -52 19 -59 24 -9 26 -14 22 -76 -1 -34 2 -44 17 -50 27 -10 31 -20 25
-69 -4 -36 -1 -45 14 -51 30 -10 33 -22 27 -93 -5 -64 -5 -66 22 -78 26 -12
27 -15 22 -63 -6 -47 -5 -50 20 -60 21 -8 24 -14 21 -39 -4 -24 1 -33 20 -46
22 -14 24 -21 20 -66 -5 -45 -3 -50 18 -59 18 -6 24 -16 24 -38 0 -18 8 -34
22 -43 18 -12 21 -23 20 -60 -2 -38 1 -49 20 -62 16 -11 22 -24 20 -46 -2 -21
3 -32 15 -37 25 -9 33 -24 27 -48 -4 -16 6 -29 41 -55 42 -31 46 -38 41 -66
-5 -26 -2 -32 20 -43 22 -10 25 -16 20 -42 -4 -22 -2 -31 11 -36 10 -4 41 -30
70 -59 37 -36 51 -57 47 -69 -8 -21 141 -169 162 -161 15 6 116 -87 127 -116
5 -14 13 -16 36 -12 26 5 32 2 42 -19 11 -25 14 -25 85 -20 70 6 74 5 82 -17
8 -22 9 -22 226 -22 214 0 218 0 233 22 14 20 22 22 65 17 40 -5 50 -3 55 11
14 35 61 72 92 72 28 0 31 3 31 30 0 24 12 43 48 78 26 27 55 51 65 55 14 5
17 14 13 34 -7 32 1 46 28 56 13 5 17 14 12 30 -6 26 2 41 28 50 16 6 18 15
13 53 -5 44 9 74 34 74 5 0 9 147 9 366 0 357 0 366 -20 371 -23 6 -23 3 -20
109 1 76 0 82 -24 97 -21 14 -24 22 -20 47 6 26 3 31 -21 40 -26 10 -27 13
-22 61 6 47 5 50 -20 60 -22 8 -25 14 -19 40 4 23 2 31 -12 36 -30 11 -72 64
-72 90 0 25 -49 83 -69 83 -12 0 -14 10 -11 53 1 25 -1 27 -38 27 -33 0 -41 4
-46 23 -5 21 -9 22 -81 19 -70 -4 -75 -3 -83 18 -8 21 -15 23 -88 24 l-79 0 0
-57 c0 -52 2 -58 23 -64 17 -4 22 -12 22 -39 0 -23 6 -37 20 -44 13 -7 20 -21
20 -39 0 -20 8 -34 25 -45 19 -13 24 -22 19 -40 -4 -17 1 -27 20 -40 25 -16
26 -19 20 -86 -7 -68 -6 -70 20 -79 26 -10 26 -12 26 -106 0 -94 0 -96 -26
-105 -25 -10 -26 -13 -20 -60 6 -45 5 -50 -19 -66 -19 -12 -25 -23 -21 -37 7
-27 -106 -139 -131 -130 -10 4 -22 -2 -33 -17 -16 -22 -22 -23 -171 -22 -85 1
-157 1 -160 2 -4 0 -9 9 -12 20 -4 15 -14 20 -41 20 -20 0 -36 5 -36 11 0 20
-64 73 -86 70 -28 -3 -124 94 -124 126 0 24 -49 83 -68 83 -14 0 -22 24 -16
47 4 14 -3 25 -20 37 -20 12 -25 22 -20 40 4 17 -1 27 -21 40 -22 14 -25 22
-20 47 6 25 3 30 -20 39 -24 9 -27 14 -21 41 5 25 2 31 -20 40 -23 8 -26 14
-20 40 5 25 2 31 -20 39 -22 9 -26 15 -22 41 4 25 0 33 -19 42 -20 9 -23 17
-23 62 0 43 -4 55 -22 67 -19 13 -21 22 -19 81 2 57 -1 67 -18 77 -29 15 -26
35 10 70 28 26 37 29 72 23 33 -5 42 -3 56 16 l17 22 669 -1 670 0 28 34 c15
19 27 44 27 56 0 22 121 151 154 163 14 6 17 14 12 37 -4 25 -1 33 20 47 19
12 24 22 20 39 -5 18 0 27 19 40 l25 16 0 340 c0 331 0 340 -20 345 -20 5 -23
12 -21 49 1 13 -8 28 -24 38 -19 13 -24 22 -20 37 5 15 -4 30 -40 61 -41 36
-46 45 -41 70 4 21 1 30 -11 35 -23 9 -147 134 -156 157 -5 14 -13 16 -37 11
-25 -6 -31 -3 -42 20 -11 25 -14 26 -65 19 -51 -6 -53 -5 -63 21 -10 26 -13
27 -60 21 -47 -6 -51 -5 -60 19 -9 23 -14 25 -77 25 -60 -1 -72 -4 -100 -29z"></path>
<path d="M3150 7350 c-6 -11 -17 -20 -25 -20 -10 0 -14 -22 -17 -97 -2 -54 -2
-99 -1 -101 0 -2 9 -5 20 -6 13 -2 19 -13 21 -40 2 -24 9 -39 20 -43 26 -10
30 -21 25 -67 -5 -37 -2 -44 21 -59 20 -13 25 -23 20 -41 -4 -17 1 -27 21 -40
22 -14 25 -22 20 -47 -5 -23 -3 -31 12 -36 10 -4 31 -20 47 -35 21 -22 27 -34
22 -53 -5 -19 -2 -27 11 -32 10 -4 72 -62 138 -130 95 -97 126 -123 147 -123
17 0 31 -8 38 -20 9 -16 21 -20 61 -20 42 0 51 -4 60 -22 9 -22 15 -23 124
-23 109 0 115 1 124 23 8 16 19 22 45 22 25 0 35 5 39 19 3 14 15 21 43 23 37
3 39 4 36 35 -3 27 1 35 23 45 21 10 25 16 20 39 -5 21 -1 31 16 43 22 15 22
20 22 213 0 153 -3 198 -14 202 -18 6 -144 133 -152 154 -5 13 -13 15 -36 11
-26 -5 -32 -2 -42 19 -11 24 -15 25 -59 20 -43 -5 -49 -3 -65 20 -14 21 -22
25 -46 20 -24 -5 -30 -1 -39 21 -9 26 -11 26 -79 20 -67 -7 -69 -6 -87 21 -16
24 -22 27 -61 22 -38 -4 -46 -2 -60 20 -16 23 -18 24 -147 22 -122 -1 -131 0
-144 20 -20 30 -106 30 -122 1z"></path>
<path d="M4766 5526 c-15 -24 -19 -25 -86 -19 -69 6 -69 6 -80 -22 -10 -26
-13 -27 -59 -21 -44 6 -50 4 -65 -19 -14 -21 -23 -25 -45 -20 -23 5 -29 1 -40
-21 -10 -22 -16 -25 -42 -20 -25 5 -31 2 -39 -19 -7 -18 -17 -25 -37 -25 -21
0 -43 -15 -90 -64 -48 -50 -66 -63 -83 -59 -26 7 -79 -50 -80 -85 0 -24 -80
-112 -113 -125 -15 -5 -17 -13 -12 -37 6 -26 3 -31 -20 -40 -23 -9 -26 -14
-20 -39 5 -25 2 -33 -20 -47 -20 -13 -25 -23 -21 -40 5 -18 0 -27 -19 -40 -16
-10 -25 -25 -24 -38 2 -37 -1 -44 -21 -49 -15 -4 -20 -14 -20 -40 0 -25 -5
-36 -22 -44 -19 -8 -22 -16 -19 -61 2 -48 0 -53 -23 -62 -22 -8 -25 -14 -20
-39 6 -26 3 -32 -20 -41 -25 -9 -26 -12 -20 -59 6 -43 4 -50 -17 -65 -17 -11
-24 -26 -24 -48 0 -24 -5 -34 -19 -36 -23 -5 -38 16 -31 44 3 16 -2 27 -20 38
-20 13 -23 22 -19 46 6 25 3 31 -21 40 -23 9 -26 14 -20 40 6 26 3 31 -20 40
-24 9 -27 14 -21 41 5 25 2 31 -20 40 -23 8 -26 14 -21 43 5 28 2 35 -19 45
-19 8 -24 18 -24 45 0 25 -5 35 -20 39 -14 4 -20 14 -20 34 0 21 -12 38 -45
68 -32 28 -43 45 -39 57 4 14 -31 54 -138 161 -79 78 -147 150 -151 161 -6 14
-14 17 -37 12 -25 -4 -33 -1 -47 20 -12 19 -22 24 -39 20 -18 -5 -28 0 -40 20
-12 18 -23 24 -38 20 -25 -6 -40 2 -49 27 -6 16 -32 17 -346 17 l-339 0 -15
-24 c-14 -21 -22 -23 -60 -19 -40 5 -47 3 -62 -21 -15 -22 -23 -26 -46 -21
-25 6 -30 3 -39 -20 -9 -23 -14 -26 -40 -20 -23 5 -32 3 -37 -10 -6 -18 -118
-131 -207 -211 -36 -33 -47 -49 -43 -64 6 -22 -42 -81 -75 -93 -14 -5 -16 -13
-12 -36 6 -26 3 -32 -20 -41 -22 -8 -25 -14 -20 -35 5 -22 -1 -33 -41 -69 -37
-34 -46 -48 -41 -64 5 -16 0 -25 -20 -38 -23 -16 -26 -23 -21 -60 5 -46 1 -57
-25 -67 -13 -4 -18 -17 -18 -41 0 -27 -5 -35 -22 -39 -22 -6 -23 -10 -20 -102
4 -90 3 -95 -18 -103 l-21 -8 1 -447 1 -447 -23 -11 c-23 -10 -23 -10 -22
-231 l2 -220 203 0 c191 0 203 2 210 20 4 10 15 22 24 25 14 6 16 33 14 243
-1 229 0 236 20 250 19 13 21 25 21 104 0 79 2 91 20 100 16 9 20 21 20 64 0
49 2 54 24 60 22 5 24 10 19 41 -5 30 -2 36 21 44 22 9 25 15 20 40 -6 27 -3
32 21 41 22 9 26 15 21 35 -6 22 9 40 113 144 89 89 125 118 139 114 13 -3 24
4 35 21 14 21 22 24 47 20 26 -6 31 -3 40 21 10 26 12 27 60 20 47 -6 50 -5
60 19 l10 26 200 0 200 0 11 -26 c9 -26 11 -27 79 -21 67 6 71 5 87 -19 12
-19 22 -24 39 -20 18 5 27 0 40 -19 10 -15 26 -25 40 -25 16 0 58 -34 139
-112 99 -97 115 -117 115 -144 0 -23 5 -33 20 -37 14 -4 20 -14 20 -34 0 -21
12 -38 44 -67 44 -38 45 -40 39 -87 -5 -45 -4 -49 21 -59 26 -9 26 -11 20 -78
-6 -66 -6 -69 21 -86 l27 -18 -3 -130 c-3 -128 -3 -132 20 -142 22 -10 22 -12
20 -169 l-3 -159 205 0 204 0 1 243 c2 240 2 243 24 251 21 8 21 13 20 135 -2
161 -3 150 20 156 18 5 20 14 20 81 0 65 3 77 20 86 13 7 20 21 20 41 0 22 6
32 25 39 21 8 24 14 19 39 -5 26 -2 32 20 43 22 9 26 16 21 36 -5 21 13 43
135 163 106 105 146 139 159 134 13 -4 24 3 36 21 15 24 21 26 67 22 46 -5 50
-3 59 20 9 23 13 24 64 20 52 -4 56 -3 61 19 l6 23 344 0 344 0 9 -23 c9 -22
14 -23 65 -19 53 4 56 3 65 -22 9 -22 15 -25 40 -20 27 6 32 3 41 -21 8 -22
15 -26 34 -21 20 5 41 -11 140 -109 87 -85 116 -120 116 -139 0 -15 8 -30 20
-36 14 -8 20 -21 20 -46 0 -24 5 -37 18 -41 24 -9 32 -24 26 -50 -5 -16 -1
-25 12 -30 28 -10 34 -23 27 -68 -5 -37 -2 -43 22 -59 25 -17 27 -21 21 -67
-6 -46 -5 -50 19 -59 l25 -10 0 -155 c0 -152 0 -156 -23 -166 -22 -10 -23 -14
-19 -104 l4 -95 -27 -10 c-23 -9 -26 -14 -20 -40 6 -26 3 -31 -20 -40 -24 -9
-26 -13 -23 -66 l3 -56 285 0 285 0 3 339 2 338 -22 19 -23 18 4 252 3 252
-27 18 -27 18 4 109 c4 107 4 109 -20 125 -23 15 -24 19 -20 106 4 88 4 90
-20 99 -23 9 -24 13 -20 64 4 52 3 56 -19 61 -20 6 -23 12 -23 60 0 43 -4 55
-20 64 -16 8 -20 21 -20 59 0 41 -4 51 -25 65 -19 13 -24 22 -19 40 4 17 -1
27 -20 39 -21 14 -24 22 -20 47 5 23 2 31 -12 37 -11 4 -32 20 -48 35 -21 22
-27 34 -22 53 5 18 2 27 -10 32 -16 6 -48 37 -187 182 -55 56 -75 71 -98 71
-22 0 -32 6 -39 25 -8 21 -14 24 -39 19 -26 -6 -32 -3 -40 20 -9 22 -15 25
-40 20 -26 -5 -32 -2 -43 20 -11 25 -15 27 -49 21 -49 -8 -75 0 -82 27 -6 20
-11 21 -96 16 -87 -5 -91 -5 -106 18 -15 24 -17 24 -204 24 l-189 0 -16 -24z"></path>
<path d="M1000 2602 c-3 -105 1 -1846 4 -1849 2 -2 84 -4 182 -5 l179 0 -3 36
c-2 31 1 38 24 46 26 10 27 12 22 81 -5 66 -4 71 19 86 22 15 24 23 23 77 -3
82 -3 83 20 89 15 4 20 14 20 41 0 25 6 38 20 46 12 6 20 21 20 36 0 17 17 42
51 76 49 49 54 51 101 49 43 -2 50 1 55 18 6 24 7 24 87 21 50 -2 62 1 75 19
l16 21 1875 0 c1871 0 1875 0 1889 -20 7 -11 24 -20 37 -20 16 0 58 -34 140
-115 l117 -114 -5 -46 c-5 -42 -4 -47 19 -56 24 -9 25 -12 21 -84 -3 -69 -2
-75 19 -84 20 -9 22 -18 25 -106 l3 -97 180 0 180 1 0 928 0 928 -2707 2
c-1490 2 -2708 -1 -2708 -5z"></path>
</g>
</svg>